<svg id="visual" viewBox="0 0 900 600" width="900" height="600" xmlns="http://www.w3.org/2000/svg" xmlns:xlink="http://www.w3.org/1999/xlink" version="1.1"><rect x="0" y="0" width="900" height="600" fill="#002233"></rect><path d="M0 418L18.8 425.8C37.7 433.7 75.3 449.3 112.8 471.3C150.3 493.3 187.7 521.7 225.2 525C262.7 528.3 300.3 506.7 337.8 499.7C375.3 492.7 412.7 500.3 450.2 511.2C487.7 522 525.3 536 562.8 542.7C600.3 549.3 637.7 548.7 675.2 535.3C712.7 522 750.3 496 787.8 488.2C825.3 480.3 862.7 490.7 881.3 495.8L900 501L900 601L881.3 601C862.7 601 825.3 601 787.8 601C750.3 601 712.7 601 675.2 601C637.7 601 600.3 601 562.8 601C525.3 601 487.7 601 450.2 601C412.7 601 375.3 601 337.8 601C300.3 601 262.7 601 225.2 601C187.7 601 150.3 601 112.8 601C75.3 601 37.7 601 18.8 601L0 601Z" fill="#FFFFFF" stroke-linecap="round" stroke-linejoin="miter"></path></svg>