<svg version="1.2" xmlns="http://www.w3.org/2000/svg" viewBox="0 0 24 24" width="24" height="24"><style></style><path  d="m16.5 4.5c0-2.5-2-4.5-4.5-4.5-2.5 0-4.5 2-4.5 4.5 0 2.5 2 4.5 4.5 4.5 2.5 0 4.5-2 4.5-4.5zm-5.6 6.8c-2.7-1.7-7.2-2.2-9.5-2.3-0.8 0-1.4 0.5-1.4 1.3v10.4c0 0.7 0.5 1.2 1.2 1.3 2.1 0.1 6.2 0.5 9.1 1.9 0.4 0.2 1-0.1 1-0.5v-11.6c-0.1-0.2-0.2-0.4-0.4-0.5zm11.7-2.3c-2.3 0.1-6.8 0.6-9.5 2.3-0.2 0.1-0.3 0.3-0.3 0.5v11.6c0 0.4 0.5 0.7 0.9 0.5 2.9-1.4 7-1.8 9.1-1.9 0.7-0.1 1.2-0.6 1.2-1.3v-10.4c0-0.8-0.6-1.3-1.4-1.3z"/></svg>